# xmcd CD database file
#
# Track frame offsets:
#	150
#	19416
#	34591
#	51438
#	69928
#	88550
#	102287
#	122182
#	137587
#	154546
#	171184
#	187709
#	209064
#
# Disc length: 3015 seconds
#
# Revision: 0
# Processed by: cddbd v1.5.2PL0 Copyright (c) Steve Scherf et al.
# Submitted via: CDex 1.70beta2
#
DISCID=ad0bc50d
DTITLE=Billy Ray Cyrus - Back to Tennessee
DYEAR=2009
DGENRE=Country
TTITLE0=Back To Tennessee 
TTITLE1=Thrillbilly 
TTITLE2=He's Mine 
TTITLE3=Somebody Said A Prayer
TTITLE4=A Good Day
TTITLE5=I Could Be The One
TTITLE6=Like Nothing Else
TTITLE7=Country As Country Can Be
TTITLE8=Love Is The Lesson
TTITLE9=Give It To Somebody
TTITLE10=Real Gone
TTITLE11=Butterfly Fly Away feat Miley Cyrus
TTITLE12=READY,SET,DON'T GO
EXTD=YEAR: 2009
EXTT0=
EXTT1=
EXTT2=
EXTT3=
EXTT4=
EXTT5=
EXTT6=
EXTT7=
EXTT8=
EXTT9=
EXTT10=
EXTT11=
EXTT12=
PLAYORDER=
